<svg xmlns="http://www.w3.org/2000/svg" viewBox="0 0 435 435"><defs><style>.cls-1{fill:#00ab97;}.cls-2{fill:#fff;}.cls-3{fill:#ea5153;stroke:#fff;stroke-miterlimit:10;stroke-width:3px;}</style></defs><title>icon_1</title><g id="Capa_2" data-name="Capa 2"><g id="Capa_1-2" data-name="Capa 1"><circle class="cls-1" cx="217.5" cy="217.5" r="217.5"/><path class="cls-2" d="M105.32,323.72l-2.59,2.58a19.78,19.78,0,0,0-6.14-4.39,15.78,15.78,0,0,0-6.5-1.5,15,15,0,0,0-7.51,2A14.51,14.51,0,0,0,77.06,328a14.9,14.9,0,0,0-2,7.37,15.16,15.16,0,0,0,2,7.57,14.84,14.84,0,0,0,5.6,5.63,15.48,15.48,0,0,0,7.84,2,12.94,12.94,0,0,0,8.74-3.07,12.27,12.27,0,0,0,4.24-8H92.87v-3.4h14.44c0,5.45-1.57,9.77-4.62,13s-7.11,4.8-12.21,4.8q-9.3,0-14.72-6.66a18.32,18.32,0,0,1-4.16-11.87A18.86,18.86,0,0,1,74,326.09a17.38,17.38,0,0,1,6.56-6.75A18.34,18.34,0,0,1,90,316.91a20,20,0,0,1,8,1.62A23.48,23.48,0,0,1,105.32,323.72Z"/><path class="cls-2" d="M112.31,317.79H131.5v3.46H115.65V332.3h15.72v3.45H115.65v13.86h15.72v3.45H112.31Z"/><path class="cls-2" d="M151.84,316.91a16.94,16.94,0,0,1,12.74,5.34,19.43,19.43,0,0,1,0,26.3,16.52,16.52,0,0,1-12.47,5.39,16.72,16.72,0,0,1-12.58-5.37,18.1,18.1,0,0,1-5.13-13,19.52,19.52,0,0,1,2.34-9.42,17.52,17.52,0,0,1,6.36-6.8A16.55,16.55,0,0,1,151.84,316.91Zm.15,3.43a13.36,13.36,0,0,0-7.05,2,14.39,14.39,0,0,0-5.2,5.5,15.87,15.87,0,0,0-1.87,7.7A14.8,14.8,0,0,0,142,346.19a13.34,13.34,0,0,0,10,4.33,13.84,13.84,0,0,0,7.22-2,14,14,0,0,0,5.18-5.45,15.92,15.92,0,0,0,1.86-7.68,15.51,15.51,0,0,0-1.86-7.59,14.32,14.32,0,0,0-5.24-5.44A13.68,13.68,0,0,0,152,320.34Z"/><path class="cls-2" d="M175,317.79h6.67a36.62,36.62,0,0,1,7.74.53,8.57,8.57,0,0,1,4.69,3.06,9.07,9.07,0,0,1,1.82,5.81,9.2,9.2,0,0,1-1.77,5.81,8.71,8.71,0,0,1-4.9,3.09,41.58,41.58,0,0,1-8.52.57h-2.39v16.4H175Zm3.34,3.46v12l5.67.07a14.14,14.14,0,0,0,5-.66,5.25,5.25,0,0,0,2.5-2.13,6.08,6.08,0,0,0,.91-3.29,6,6,0,0,0-.91-3.24,5.09,5.09,0,0,0-2.4-2.09,13.66,13.66,0,0,0-4.89-.62Z"/><path class="cls-2" d="M214.92,317.79l15.62,35.27h-3.61l-5.27-11.6H207.22L202,353.06h-3.74l15.83-35.27Zm-.42,7.5-5.74,12.76h11.45Z"/><path class="cls-2" d="M234.52,317.79h6.67a38.43,38.43,0,0,1,7.56.48,8.53,8.53,0,0,1,4.85,3.09,9.07,9.07,0,0,1,1.87,5.82,9.74,9.74,0,0,1-1.29,5.06,8.1,8.1,0,0,1-3.68,3.3,15.91,15.91,0,0,1-6.6,1.14l12,16.38h-4.14l-12.05-16.38h-1.9v16.38h-3.34Zm3.34,3.46v12l5.78,0a13.67,13.67,0,0,0,5-.67,5.22,5.22,0,0,0,2.51-2.15,6.18,6.18,0,0,0,.9-3.29,5.93,5.93,0,0,0-.92-3.23,5.15,5.15,0,0,0-2.39-2.07,13.8,13.8,0,0,0-4.93-.62Z"/><path class="cls-2" d="M289.32,349.23l5,6.61h-4.12l-3.42-4.56a17.38,17.38,0,0,1-21.8-2.71,18.14,18.14,0,0,1-5.12-13,19.58,19.58,0,0,1,2.34-9.43,17.53,17.53,0,0,1,6.39-6.8A17.36,17.36,0,0,1,290,322.27a18.38,18.38,0,0,1,5.11,13.17,19.17,19.17,0,0,1-1.41,7.45A19.49,19.49,0,0,1,289.32,349.23Zm-2.07-2.76a15.25,15.25,0,0,0,4.37-11.06,15.66,15.66,0,0,0-1.85-7.6,14.27,14.27,0,0,0-5.23-5.43,13.41,13.41,0,0,0-14.19,0,14.23,14.23,0,0,0-5.19,5.5,16,16,0,0,0-1.87,7.71,14.86,14.86,0,0,0,4.12,10.62,13.28,13.28,0,0,0,10,4.33,13.64,13.64,0,0,0,7.29-2l-7.46-10h4.06Z"/><path class="cls-2" d="M300.59,317.79h3.34v21.29a46.09,46.09,0,0,0,.14,4.72,8.09,8.09,0,0,0,1.16,3.49,6.9,6.9,0,0,0,2.8,2.35,8.45,8.45,0,0,0,3.81.95,7.33,7.33,0,0,0,5.74-2.81,8.68,8.68,0,0,0,1.5-3.18,27.73,27.73,0,0,0,.34-5.52V317.79h3.35v21.29a27,27,0,0,1-.88,7.64,10.33,10.33,0,0,1-3.51,5.07,9.68,9.68,0,0,1-6.36,2.15,11.76,11.76,0,0,1-6.95-2,9.81,9.81,0,0,1-3.87-5.4,30.05,30.05,0,0,1-.61-7.43Z"/><path class="cls-2" d="M329.64,317.79h19.19v3.46H333V332.3H348.7v3.45H333v13.86H348.7v3.45H329.64Z"/><path class="cls-2" d="M349.76,346.49l2.85-1.8q3,5.82,6.94,5.83a6.41,6.41,0,0,0,3.17-.83,5.66,5.66,0,0,0,2.25-2.22,5.92,5.92,0,0,0,.78-3,6.16,6.16,0,0,0-1.14-3.47,28,28,0,0,0-5.74-5.66,30,30,0,0,1-5.22-4.82,9.12,9.12,0,0,1-1.77-5.39,8.63,8.63,0,0,1,1-4.2,7.75,7.75,0,0,1,2.95-3,8.16,8.16,0,0,1,4.14-1.09,8.51,8.51,0,0,1,4.43,1.23,15.73,15.73,0,0,1,4.36,4.54l-2.74,2.19a13.46,13.46,0,0,0-3.22-3.48,5.33,5.33,0,0,0-2.9-.84,4.43,4.43,0,0,0-3.31,1.3,4.32,4.32,0,0,0-1.29,3.18,5.73,5.73,0,0,0,.45,2.23,8.18,8.18,0,0,0,1.67,2.35c.44.45,1.88,1.62,4.32,3.53a25.13,25.13,0,0,1,6,6,10.06,10.06,0,0,1,1.62,5.3,9.25,9.25,0,0,1-2.77,6.67,9.07,9.07,0,0,1-6.73,2.82,9.52,9.52,0,0,1-5.53-1.71A15.49,15.49,0,0,1,349.76,346.49Z"/><path class="cls-3" d="M220.65,111.3a27.87,27.87,0,1,0,27.87,27.87A27.93,27.93,0,0,0,220.65,111.3Zm0,0a27.87,27.87,0,1,0,27.87,27.87A27.93,27.93,0,0,0,220.65,111.3Zm0,0a27.87,27.87,0,1,0,27.87,27.87A27.93,27.93,0,0,0,220.65,111.3Z"/><path class="cls-2" d="M282.69,132.19c-3.5-29.26-26.51-52.27-55.06-55.06V62.5h-14V77.13c-1.57.16-3.12.36-4.66.63H156.45v54.43H144v14h12.46V293.9h20.34V200.64h32.69c1.38.24,2.78.42,4.19.56v14.64h14V201.2c29.26-3.49,52.27-26.51,55.06-55h14.63v-14Zm-62,55.74a48.48,48.48,0,0,1-43.86-27.17,49.74,49.74,0,0,1,0-43.18A48.42,48.42,0,0,1,217.5,90.47c1-.06,2.1-.1,3.15-.1s2.13,0,3.17.1a48.78,48.78,0,0,1-3.17,97.46Z"/><path class="cls-2" d="M223.82,90.47H217.5c1-.06,2.1-.1,3.15-.1S222.78,90.41,223.82,90.47Z"/></g></g></svg>